<svg width="20" height="22" viewBox="0 0 20 22" fill="none" xmlns="http://www.w3.org/2000/svg">
<path d="M17.12 0C16.196 0 15.452 0.312001 14.888 0.936C14.336 1.524 14.06 2.292 14.048 3.252H15.452C15.476 2.58 15.62 2.064 15.884 1.728C16.148 1.368 16.544 1.188 17.072 1.188C17.564 1.188 17.936 1.296 18.188 1.524C18.428 1.752 18.56 2.1 18.56 2.568C18.56 3.048 18.368 3.504 17.996 3.924C17.756 4.176 17.372 4.5 16.82 4.884C15.824 5.568 15.164 6.096 14.852 6.456C14.276 7.104 14 7.86 14 8.736H19.976V7.5H15.752C15.944 7.068 16.472 6.564 17.348 5.988C18.188 5.424 18.788 4.968 19.124 4.608C19.676 3.996 19.964 3.324 19.964 2.58C19.964 1.812 19.7 1.2 19.172 0.72C18.632 0.24 17.948 0 17.12 0Z" fill="#6A6A6A"/>
<rect x="0.5" y="6.5" width="12" height="15" stroke="#A2A2A2"/>
</svg>
