<svg width="15" height="15" viewBox="0 0 15 15" fill="none" xmlns="http://www.w3.org/2000/svg">
<path d="M0.8 4.752V9.888H7.008V4.752H0.8ZM5.36 8.384H2.464V6.288H5.36V8.384ZM7.376 10.352C4.96 11.04 2.496 11.536 0 11.824L0.4 13.488C2.88 13.072 5.2 12.56 7.376 11.952V10.352ZM12.704 14.752C13.568 14.752 14.224 13.632 14.672 11.408L13.248 10.464C13.04 12.096 12.8 12.912 12.512 12.912C12.112 12.912 11.664 12.512 11.184 11.744C11.088 11.568 10.992 11.392 10.896 11.2C11.968 9.6 12.88 7.632 13.616 5.28L12.144 4.496C11.616 6.272 10.976 7.824 10.208 9.168C10.128 8.848 10.064 8.528 10 8.176C9.76 6.832 9.632 5.264 9.6 3.504H14.416V1.872H12.944C12.72 1.296 12.48 0.768 12.24 0.304L10.56 0.576C10.832 0.976 11.088 1.408 11.312 1.872H9.584V0H7.904V1.872H0.064V3.504H7.904C7.936 5.632 8.144 7.488 8.512 9.072C8.656 9.728 8.832 10.336 9.056 10.896C8.208 11.968 7.248 12.816 6.16 13.456L7.088 14.896C8.08 14.288 9.008 13.52 9.84 12.56C9.968 12.784 10.112 12.992 10.272 13.2C11.04 14.224 11.84 14.736 12.704 14.752Z" fill="#6A6A6A"/>
</svg>
