<svg width="24" height="11" viewBox="0 0 24 11" fill="none" xmlns="http://www.w3.org/2000/svg">
<path d="M3.57 2.758C2.646 2.758 1.918 2.912 1.386 3.248C0.756 3.612 0.364 4.2 0.21 4.998L1.792 5.124C1.876 4.746 2.086 4.466 2.394 4.284C2.66 4.116 3.01 4.046 3.458 4.046C4.494 4.046 5.012 4.508 5.012 5.46V5.74L3.43 5.782C2.366 5.81 1.54 6.034 0.952 6.454C0.308 6.888 0 7.518 0 8.33C0 8.932 0.224 9.422 0.672 9.814C1.106 10.192 1.694 10.388 2.45 10.388C3.08 10.388 3.626 10.276 4.088 10.066C4.494 9.87 4.844 9.604 5.124 9.24V10.192H6.608V5.572C6.608 4.69 6.384 4.018 5.936 3.556C5.432 3.024 4.634 2.758 3.57 2.758ZM5.012 6.888V7.252C5.012 7.812 4.788 8.274 4.368 8.638C3.948 8.988 3.43 9.17 2.814 9.17C2.464 9.17 2.184 9.072 1.96 8.904C1.736 8.736 1.638 8.526 1.638 8.274C1.638 7.406 2.268 6.958 3.542 6.93L5.012 6.888Z" fill="#6A6A6A"/>
<path d="M8.29172 0V10.192H9.77572V9.422C10.2797 10.066 11.0077 10.388 11.9597 10.388C13.0237 10.388 13.8637 10.01 14.4797 9.254C15.0397 8.554 15.3197 7.644 15.3197 6.538C15.3197 5.474 15.0397 4.592 14.4937 3.892C13.8917 3.136 13.0797 2.758 12.0437 2.758C11.2037 2.758 10.4757 3.15 9.88772 3.948V0H8.29172ZM11.6657 4.046C12.3797 4.046 12.9117 4.284 13.2477 4.76C13.5277 5.166 13.6817 5.754 13.6817 6.538C13.6817 7.322 13.5417 7.924 13.2757 8.344C12.9397 8.848 12.4217 9.1 11.7217 9.1C11.0917 9.1 10.6157 8.848 10.2797 8.358C9.97172 7.91 9.83172 7.322 9.83172 6.622V6.51C9.83172 5.74 10.0137 5.124 10.3917 4.676C10.7277 4.256 11.1477 4.046 11.6657 4.046Z" fill="#6A6A6A"/>
<path d="M19.9616 2.758C18.8276 2.758 17.9456 3.136 17.3156 3.892C16.7276 4.578 16.4336 5.474 16.4336 6.566C16.4336 7.686 16.7276 8.596 17.3296 9.296C17.9456 10.024 18.8136 10.388 19.9336 10.388C20.8716 10.388 21.6276 10.15 22.1876 9.688C22.7616 9.212 23.1396 8.484 23.3076 7.504H21.7256C21.5996 8.554 21.0116 9.086 19.9476 9.086C19.3316 9.086 18.8696 8.862 18.5616 8.428C18.2256 7.98 18.0716 7.35 18.0716 6.552C18.0716 5.768 18.2396 5.152 18.5756 4.718C18.9116 4.27 19.3736 4.06 19.9616 4.06C20.4376 4.06 20.8296 4.172 21.1236 4.396C21.4036 4.62 21.5996 4.956 21.6976 5.418H23.2796C23.1396 4.508 22.7756 3.836 22.2016 3.388C21.6416 2.968 20.8996 2.758 19.9616 2.758Z" fill="#6A6A6A"/>
</svg>
