<svg width="20" height="14" viewBox="0 0 20 14" fill="none" xmlns="http://www.w3.org/2000/svg">
<path fill-rule="evenodd" clip-rule="evenodd" d="M5.89619 0C5.24006 0 4.62566 0.321829 4.25206 0.86121L0.788855 5.86121C0.314359 6.54626 0.31436 7.45374 0.788855 8.13879L4.25206 13.1388C4.62566 13.6782 5.24006 14 5.89619 14H18.0001C19.1047 14 20.0001 13.1046 20.0001 12V2C20.0001 0.895431 19.1047 0 18.0001 0H5.89619ZM8.74249 3.91379C9.11687 3.50776 9.73975 3.49237 10.1337 3.87941L11.5856 5.30572L12.9809 3.88544C13.3679 3.49146 13.991 3.49578 14.3725 3.89509C14.7541 4.29439 14.7496 4.93748 14.3626 5.33146L13.0116 6.7066L14.4139 8.08417C14.8079 8.47121 14.8238 9.11411 14.4494 9.52014C14.075 9.92616 13.4521 9.94155 13.0582 9.55452L11.6108 8.13262L10.1578 9.61164C9.77076 10.0056 9.1477 10.0013 8.76616 9.602C8.38462 9.20269 8.38908 8.55961 8.77611 8.16563L10.1847 6.73173L8.77798 5.34975C8.384 4.96272 8.36811 4.31981 8.74249 3.91379Z" fill="#5E676E"/>
</svg>
