<svg width="16" height="16" viewBox="0 0 16 16" fill="none" xmlns="http://www.w3.org/2000/svg">
<path fill-rule="evenodd" clip-rule="evenodd" d="M0 1C0 0.447715 0.447715 0 1 0H15C15.5523 0 16 0.447715 16 1V11C16 11.5523 15.5523 12 15 12H1C0.447715 12 0 11.5523 0 11V1ZM8.39279 15.6598C8.16733 15.8551 7.83267 15.8551 7.60721 15.6598L5.75244 14.0536C5.3325 13.6899 5.5897 13 6.14523 13H9.85477C10.4103 13 10.6675 13.6899 10.2476 14.0536L8.39279 15.6598ZM3 3H5V5H3V3ZM3 7H5V9H3V7ZM9 3H7V5H9V3ZM7 7H9V9H7V7ZM13 3H11V5H13V3ZM11 7H13V9H11V7Z" fill="#6A6A6A"/>
</svg>
